<?xml version="1.0" encoding="UTF-8"?>
<svg id="Layer_1" data-name="Layer 1" xmlns="http://www.w3.org/2000/svg" viewBox="0 0 964 964">
  <defs>
    <style>
      .cls-1 {
        fill: #f3e9cc;
      }

      .cls-2 {
        stroke-width: 10px;
      }

      .cls-2, .cls-3 {
        fill: none;
        stroke: #f3e9cc;
        stroke-miterlimit: 10;
      }

      .cls-3 {
        stroke-width: 5px;
      }
    </style>
  </defs>
  <circle class="cls-2" cx="482" cy="482" r="477"/>
  <circle class="cls-3" cx="482" cy="485.72" r="378.44"/>
  <g>
    <polygon class="cls-1" points="402.35 86.14 391.91 19.31 408.44 16.73 416.6 68.91 455.25 67.58 455.09 41.38 442.15 41.55 442.15 55.21 425.41 55.21 425.41 25.04 471.72 24.41 472.09 83.75 402.35 86.14"/>
    <polygon class="cls-1" points="324.96 112.16 300.4 49.13 315.99 43.05 335.17 92.27 372.63 82.67 366.84 57.11 354.25 60.06 357.18 73.4 340.83 76.99 334.35 47.52 379.44 36.97 392.55 94.84 324.96 112.16"/>
    <polygon class="cls-1" points="250.13 155.3 210.63 100.39 224.22 90.61 255.06 133.49 288.95 114.85 276.97 91.54 265.5 97.54 271.67 109.73 256.74 117.29 243.11 90.36 284.15 68.9 311.27 121.67 250.13 155.3"/>
    <polygon class="cls-1" points="185.74 208.59 137.03 161.65 148.64 149.59 186.67 186.24 216.67 161.83 200.7 141.05 190.5 149 198.75 159.89 185.42 170 167.18 145.96 203.7 117.48 239.86 164.53 185.74 208.59"/>
    <polygon class="cls-1" points="134.84 274.93 76.7 240.35 85.26 225.96 130.65 252.97 154.28 222.35 134 205.76 125.88 215.84 136.4 224.55 125.72 237.44 102.48 218.19 131.54 182.13 177.48 219.7 134.84 274.93"/>
    <polygon class="cls-1" points="99.38 352.29 35.33 330.54 40.71 314.69 90.72 331.67 107.47 296.82 84.18 284.8 78.34 296.35 90.44 302.68 82.67 317.51 55.94 303.52 76.87 262.2 129.61 289.4 99.38 352.29"/>
    <polygon class="cls-1" points="84.24 433.46 16.69 429.98 17.55 413.27 70.29 415.98 76.92 377.88 51.24 372.67 48.75 385.37 62.13 388.17 58.69 404.55 29.16 398.36 38.04 352.91 96.2 364.71 84.24 433.46"/>
    <polygon class="cls-1" points="78.47 517.84 11.21 525.13 9.41 508.49 61.92 502.8 62.42 464.13 36.23 463.05 35.8 475.99 49.44 476.63 48.65 493.35 18.51 491.93 20.07 445.64 79.36 448.07 78.47 517.84"/>
  </g>
  <g>
    <polygon class="cls-1" points="560.8 86.14 571.24 19.31 554.7 16.73 546.55 68.91 507.9 67.58 508.06 41.38 521 41.55 521 55.21 537.74 55.21 537.74 25.04 491.43 24.41 491.06 83.75 560.8 86.14"/>
    <polygon class="cls-1" points="638.19 112.16 662.75 49.13 647.16 43.05 627.98 92.27 590.52 82.67 596.3 57.11 608.9 60.06 605.97 73.4 622.31 76.99 628.8 47.52 583.71 36.97 570.6 94.84 638.19 112.16"/>
    <polygon class="cls-1" points="713.01 155.3 752.52 100.39 738.93 90.61 708.09 133.49 674.2 114.85 686.18 91.54 697.64 97.54 691.48 109.73 706.41 117.29 720.04 90.36 679 68.9 651.87 121.67 713.01 155.3"/>
    <polygon class="cls-1" points="777.41 208.59 826.12 161.65 814.51 149.59 776.48 186.24 746.48 161.83 762.45 141.05 772.65 149 764.39 159.89 777.73 170 795.96 145.96 759.45 117.48 723.29 164.53 777.41 208.59"/>
    <polygon class="cls-1" points="828.31 274.93 886.45 240.35 877.89 225.96 832.5 252.97 808.87 222.35 829.15 205.76 837.27 215.84 826.75 224.55 837.43 237.44 860.66 218.19 831.61 182.13 785.67 219.7 828.31 274.93"/>
    <polygon class="cls-1" points="863.77 352.29 927.82 330.54 922.44 314.69 872.43 331.67 855.67 296.82 878.97 284.8 884.81 296.35 872.71 302.68 880.47 317.51 907.21 303.52 886.28 262.2 833.54 289.4 863.77 352.29"/>
    <polygon class="cls-1" points="878.9 433.46 946.46 429.98 945.6 413.27 892.85 415.98 886.23 377.88 911.91 372.67 914.39 385.37 901.02 388.17 904.45 404.55 933.99 398.36 925.11 352.91 866.95 364.71 878.9 433.46"/>
    <polygon class="cls-1" points="884.68 517.84 951.94 525.13 953.74 508.49 901.23 502.8 900.73 464.13 926.92 463.05 927.35 475.99 913.71 476.63 914.5 493.35 944.64 491.93 943.08 445.64 883.79 448.07 884.68 517.84"/>
  </g>
  <polygon class="cls-1" points="869.57 606.41 934.88 624.05 939.24 607.89 888.26 594.12 893.77 555.84 919.81 558.85 918.23 571.69 904.65 570.21 902.83 586.84 932.83 590.12 938.48 544.16 879.53 537.34 869.57 606.41"/>
  <polygon class="cls-1" points="835.31 680.52 895.29 711.78 903.03 696.94 856.19 672.53 869.8 636.33 894.58 644.86 890.28 657.06 877.34 652.7 871.99 668.56 900.58 678.2 915.97 634.52 859.87 615.21 835.31 680.52"/>
  <polygon class="cls-1" points="784.29 750.21 834.59 795.45 845.78 783 806.51 747.68 828.72 716.02 850.59 730.46 843.38 741.21 831.93 733.75 822.8 747.77 848.08 764.25 873.88 725.79 824.36 693.09 784.29 750.21"/>
  <polygon class="cls-1" points="724.33 808.44 765.7 861.96 778.94 851.72 746.64 809.94 774.17 782.77 793.09 800.9 784.07 810.18 774.15 800.79 762.65 812.95 784.57 833.69 816.84 800.48 774 759.43 724.33 808.44"/>
  <polygon class="cls-1" points="652.84 851.83 680.91 913.38 696.14 906.43 674.22 858.38 707.22 838.21 721.51 860.18 710.61 867.16 703.1 855.75 689.12 864.96 705.73 890.16 744.73 865.19 712.38 815.44 652.84 851.83"/>
  <polygon class="cls-1" points="572.09 878.67 586.75 944.71 603.09 941.08 591.64 889.52 628.12 876.65 637.53 901.11 625.42 905.67 620.43 892.95 604.85 899.06 615.86 927.15 659.2 910.84 637.89 855.46 572.09 878.67"/>
  <polygon class="cls-1" points="488.24 888.41 487.68 956.06 504.41 956.2 504.85 903.38 543.29 899.04 546.95 924.99 534.13 926.71 532.13 913.2 515.58 915.64 519.99 945.49 565.89 939.34 557.58 880.59 488.24 888.41"/>
  <polygon class="cls-1" points="94.02 604.55 28.71 622.19 24.35 606.03 75.34 592.26 69.82 553.98 43.79 556.99 45.36 569.83 58.94 568.35 60.76 584.98 30.77 588.26 25.12 542.3 84.06 535.48 94.02 604.55"/>
  <polygon class="cls-1" points="128.29 678.66 68.3 709.92 60.56 695.08 107.4 670.67 93.79 634.47 69.01 643 73.31 655.2 86.25 650.84 91.6 666.7 63.01 676.34 47.62 632.66 103.73 613.35 128.29 678.66"/>
  <polygon class="cls-1" points="179.3 748.35 129 793.59 117.81 781.14 157.08 745.82 134.87 714.16 113 728.6 120.21 739.35 131.66 731.89 140.79 745.91 115.51 762.39 89.71 723.93 139.23 691.23 179.3 748.35"/>
  <polygon class="cls-1" points="239.27 806.58 197.9 860.1 184.65 849.86 216.95 808.08 189.43 780.91 170.5 799.04 179.52 808.32 189.44 798.93 200.95 811.09 179.03 831.83 146.75 798.62 189.6 757.57 239.27 806.58"/>
  <polygon class="cls-1" points="310.75 849.97 282.69 911.52 267.46 904.57 289.37 856.52 256.37 836.35 242.08 858.32 252.98 865.3 260.5 853.89 274.47 863.1 257.86 888.3 218.86 863.33 251.21 813.59 310.75 849.97"/>
  <polygon class="cls-1" points="391.5 876.81 376.84 942.85 360.5 939.22 371.95 887.66 335.48 874.79 326.07 899.25 338.18 903.81 343.16 891.09 358.74 897.2 347.73 925.29 304.39 908.98 325.7 853.6 391.5 876.81"/>
  <polygon class="cls-1" points="473.39 888.3 474.18 955.94 457.45 956.13 456.83 903.32 418.38 899.11 414.8 925.08 427.63 926.75 429.58 913.23 446.15 915.62 441.84 945.49 395.92 939.49 404.03 880.71 473.39 888.3"/>
</svg>